<svg width="100%" height="100%" viewBox="0 0 22 15" version="1.1" xmlns="http://www.w3.org/2000/svg" xmlns:xlink="http://www.w3.org/1999/xlink" xml:space="preserve" style="fill-rule:evenodd;clip-rule:evenodd;stroke-linejoin:round;stroke-miterlimit:1.41421;">
    <g transform="matrix(1,0,0,1,-12010,-325)"><g transform="matrix(1,0,0,1,1330,0)">
    
    <g class="Burger-Menu" transform="matrix(1,0,0,1,10294.4,311.86)">
        <g transform="matrix(0.5,0,0,0.5,370.594,0)">
            <path d="M30,30c0,-1.105 0.879,-2 2.005,-2l39.99,0c1.107,0 2.005,0.888 2.005,2c0,1.105 -0.879,2 -2.005,2l-39.99,0c-1.107,0 -2.005,-0.888 -2.005,-2Z" style="fill:#fff;"/>
        </g>
        <g transform="matrix(0.5,0,0,0.5,370.594,0)">
            <path d="M30,54c0,-1.105 0.879,-2 2.005,-2l39.99,0c1.107,0 2.005,0.888 2.005,2c0,1.105 -0.879,2 -2.005,2l-39.99,0c-1.107,0 -2.005,-0.888 -2.005,-2Z" style="fill:#fff;"/>
        </g>
        <g transform="matrix(0.5,0,0,0.5,370.594,0)">
            <path d="M30,42c0,-1.105 0.898,-2 2.015,-2l25.97,0c1.113,0 2.015,0.888 2.015,2c0,1.105 -0.898,2 -2.015,2l-25.97,0c-1.113,0 -2.015,-0.888 -2.015,-2Z" style="fill:#fff;"/>
        </g>
    </g>
    </g>
    </g>
</svg>